<?xml version="1.0" encoding="UTF-8"?>
<svg width="48px" height="37px" viewBox="0 0 48 37" version="1.1" xmlns="http://www.w3.org/2000/svg" xmlns:xlink="http://www.w3.org/1999/xlink">
    <title>2E6EDF2B-F534-4F3F-AF74-110FC3106CFF</title>
    <g id="🖥-Pages" stroke="none" stroke-width="1" fill="none" fill-rule="evenodd">
        <g id="AC(HP)-steps(desktop)" transform="translate(-838.000000, -891.000000)" fill="#FFFFFF" fill-rule="nonzero">
            <g id="Benefits" transform="translate(0.000000, 790.000000)">
                <g id="benefit-1-copy-2" transform="translate(775.500000, 80.000000)">
                    <g id="icon" transform="translate(46.500000, 0.000000)">
                        <g id="360-icon" transform="translate(16.000000, 21.333333)">
                            <path d="M30.2142334,31.8178545 C29.5166016,31.8178545 28.9112549,31.2935125 28.8208008,30.5755047 C28.7230224,29.7963978 29.2679443,29.0846851 30.0380859,28.9854452 C34.4816895,28.4129645 38.4609375,27.1954247 41.2426758,25.5564859 C43.7867432,24.0578899 45.1875,22.2960121 45.1875,20.5956038 C45.1875,18.7215257 43.5483398,17.1881216 42.1728516,16.2312716 C41.533081,15.7861735 41.3712158,14.9011613 41.8114013,14.2538804 C42.2515869,13.6069698 43.1271973,13.4432981 43.7669677,13.8883962 C46.5362549,15.8146864 48,18.1338627 48,20.595974 C48,23.3902427 46.1531982,25.9552968 42.6588135,28.0137833 C39.5134277,29.8667544 35.2723388,31.1783499 30.3936768,31.8067456 C30.333252,31.8141516 30.2731933,31.8178545 30.2142334,31.8178545 Z" id="Path"></path>
                            <path d="M23.6572266,29.7808453 L19.9072266,25.9889939 C19.3579102,25.4335469 18.4676513,25.4335469 17.9183349,25.9889939 C17.3693848,26.5440706 17.3693848,27.4446353 17.9183349,27.999712 L19.0140381,29.1076436 C14.8128662,28.6688404 10.9962158,27.6797746 8.04089353,26.242648 C4.71826172,24.6270379 2.8125,22.5685514 2.8125,20.5956038 C2.8125,18.9222271 4.177002,17.1829375 6.65441897,15.6980425 C7.32275391,15.2977504 7.54321294,14.4253284 7.14733884,13.7499048 C6.75109866,13.074111 5.88830569,12.8511916 5.22033694,13.2514837 C0.905639625,15.8376448 0,18.6726462 0,20.5956038 C0,23.7505426 2.42285156,26.6662689 6.82214353,28.8058507 C10.2366943,30.4658965 14.6535645,31.5779014 19.4655761,32.0081877 L17.9183349,33.5726967 C17.3693848,34.1277734 17.3693848,35.0283381 17.9183349,35.5837851 C18.1929932,35.8611382 18.5529786,36 18.9129638,36 C19.272583,36 19.6325683,35.8611382 19.9072266,35.5837851 L23.6572266,31.7919337 C24.2061768,31.2364867 24.2061768,30.335922 23.6572266,29.7808453 Z" id="Path"></path>
                            <path d="M14.7279052,17.7480122 L14.7279052,17.4058568 C14.7279052,16.1990557 13.9973145,15.9650274 13.0177002,15.9650274 C12.4119873,15.9650274 12.2160645,15.4247627 12.2160645,14.8844979 C12.2160645,14.3438628 12.4119873,13.803598 13.0177002,13.803598 C13.694458,13.803598 14.4071045,13.7136156 14.4071045,12.2546416 C14.4071045,11.2100309 13.8193359,10.957858 13.0887451,10.957858 C12.2160645,10.957858 11.770752,11.174112 11.770752,11.8765673 C11.770752,12.4886699 11.503418,12.9030333 10.4703369,12.9030333 C9.18786619,12.9030333 9.02783203,12.6327158 9.02783203,11.76807 C9.02783203,10.3635298 10.0250244,8.5442557 13.0887451,8.5442557 C15.3511963,8.5442557 17.0610352,9.37261237 17.0610352,11.8043593 C17.0610352,13.1189171 16.5802002,14.3438628 15.6895752,14.7582263 C16.7406006,15.1544451 17.5063477,15.9468828 17.5063477,17.4058568 L17.5063477,17.7480122 C17.5063477,20.7018792 15.4936523,21.8186979 12.9997558,21.8186979 C9.93603516,21.8186979 8.760498,19.9275862 8.760498,18.4145486 C8.760498,17.6039663 9.098877,17.3877123 10.0784912,17.3877123 C11.2185058,17.3877123 11.503418,17.6398852 11.503418,18.3245662 C11.503418,19.1710674 12.2874756,19.3691768 13.0887451,19.3691768 C14.3001709,19.3691768 14.7279052,18.9188945 14.7279052,17.7480122 Z" id="Path"></path>
                            <path d="M28.3187256,17.4058568 L28.3187256,17.5680474 C28.3187256,20.6659603 26.4125977,21.8186979 23.9545898,21.8186979 C21.496582,21.8186979 19.5725098,20.6659603 19.5725098,17.5680474 L19.5725098,12.7949063 C19.5725098,9.6969934 21.5496826,8.5442557 24.1149902,8.5442557 C27.1252442,8.5442557 28.3187256,10.4353675 28.3187256,11.9302605 C28.3187256,12.7949063 27.9089355,13.0648535 27.0183105,13.0648535 C26.2525635,13.0648535 25.5754395,12.8667442 25.5754395,12.0383876 C25.5754395,11.3540769 24.8631592,10.9937769 24.026001,10.9937769 C22.9749756,10.9937769 22.3513183,11.5521863 22.3513183,12.7949063 L22.3513183,14.4157006 C22.9215088,13.7854535 23.7231445,13.623263 24.5782471,13.623263 C26.6085205,13.623263 28.3187256,14.5238277 28.3187256,17.4058568 Z M22.3513183,17.7661568 C22.3513183,19.0088769 22.9570312,19.5491416 23.9545898,19.5491416 C24.9521484,19.5491416 25.539917,19.0088769 25.539917,17.7661568 L25.539917,17.6039663 C25.539917,16.2890381 24.9521484,15.7846923 23.9366455,15.7846923 C22.9749756,15.7846923 22.3513183,16.2531192 22.3513183,17.4417758 L22.3513183,17.7661568 Z" id="Shape"></path>
                            <path d="M30.473877,17.5680474 L30.473877,12.7949063 C30.473877,9.6969934 32.3796386,8.5442557 34.8380127,8.5442557 C37.2960205,8.5442557 39.2197266,9.6969934 39.2197266,12.7949063 L39.2197266,17.5680474 C39.2197266,20.6659603 37.2960205,21.8186979 34.8380127,21.8186979 C32.3796386,21.8186979 30.473877,20.6659603 30.473877,17.5680474 L30.473877,17.5680474 Z M36.440918,12.7949063 C36.440918,11.5521863 35.8355713,10.9937769 34.8380127,10.9937769 C33.8404541,10.9937769 33.2526855,11.5521863 33.2526855,12.7949063 L33.2526855,17.5680474 C33.2526855,18.8107675 33.8404541,19.3691768 34.8380127,19.3691768 C35.8355713,19.3691768 36.440918,18.8107675 36.440918,17.5680474 L36.440918,12.7949063 Z" id="Shape"></path>
                            <path d="M42.5954589,8.53166562 C40.2689209,8.53166562 38.3767089,6.61796562 38.3767089,4.26583281 C38.3767089,1.9137 40.2689209,0 42.5954589,0 C44.9216308,0 46.8142089,1.9137 46.8142089,4.26583281 C46.8142089,6.61796562 44.9216308,8.53166562 42.5954589,8.53166562 Z M42.5954589,2.84388854 C41.8198242,2.84388854 41.1892089,3.48191199 41.1892089,4.26583281 C41.1892089,5.05012399 41.8198242,5.68777708 42.5954589,5.68777708 C43.3707276,5.68777708 44.0017089,5.05012399 44.0017089,4.26583281 C44.0017089,3.48191199 43.3707276,2.84388854 42.5954589,2.84388854 Z" id="Shape"></path>
                        </g>
                    </g>
                </g>
            </g>
        </g>
    </g>
</svg>