<?xml version="1.0" encoding="UTF-8"?>
<svg width="43px" height="37px" viewBox="0 0 43 37" version="1.1" xmlns="http://www.w3.org/2000/svg" xmlns:xlink="http://www.w3.org/1999/xlink">
    <title>B24A63C5-85C5-4456-9474-1B97F2BD479E</title>
    <g id="🖥-Pages" stroke="none" stroke-width="1" fill="none" fill-rule="evenodd">
        <g id="AC(HP)-steps(desktop)" transform="translate(-180.000000, -892.000000)" fill="#FFFFFF" fill-rule="nonzero">
            <g id="Benefits" transform="translate(0.000000, 790.000000)">
                <g id="benefit-1" transform="translate(124.000000, 80.000000)">
                    <g id="icon" transform="translate(37.500000, 0.000000)">
                        <g id="eye-icon" transform="translate(18.666667, 22.666667)">
                            <path d="M42.3753748,17.1189611 C39.7855782,13.7823482 36.6751616,10.8697263 33.1594811,8.48926609 L39.1723698,2.57630905 C39.7777212,2.00138823 39.7945067,1.05278644 39.2098695,0.457495791 C38.6252322,-0.137794857 37.6605986,-0.154301441 37.0552473,0.42061938 C37.0425688,0.432648114 37.0300689,0.444940251 37.0177476,0.457495791 L30.4487035,6.91139467 C27.6525696,5.39805697 24.5243853,4.57527398 21.3333445,4.51381329 C9.75247343,4.51381329 0.672203374,16.6034815 0.291224885,17.1188733 C-0.0970749618,17.6441865 -0.0970749618,18.3557257 0.291224885,18.8810389 C2.88102147,22.2176518 5.99143807,25.1302737 9.50711864,27.5107339 L3.49422988,33.4236909 C2.88887854,33.9986118 2.87209299,34.9472136 3.45673024,35.5425042 C4.04136749,36.1377949 5.00600109,36.1543014 5.61135243,35.5793806 C5.62403088,35.5673519 5.63653076,35.5550597 5.64885207,35.5425042 L12.2178962,29.0886053 C15.0140301,30.601943 18.1422144,31.424726 21.3332552,31.4861867 C32.9141263,31.4861867 41.9943963,19.3965185 42.3753748,18.8810389 C42.7637639,18.3558135 42.7637639,17.6442743 42.3753748,17.1189611 Z M11.7227224,25.3365182 C8.61855573,23.3033987 5.83608242,20.8313621 3.46530158,18.0000439 C5.70831579,15.3282601 12.9828889,7.51072416 21.3333445,7.51072416 C23.7091253,7.55796109 26.0449064,8.12085317 28.173636,9.15901197 L25.5283043,11.7603794 C22.0283378,9.4753589 17.3073117,10.4130734 14.9836733,13.8548718 C13.2910109,16.3620288 13.2910109,19.622606 14.9836733,22.129763 L11.7227224,25.3365182 Z M25.4475907,16.0744806 C25.7458022,16.6741613 25.90214,17.332493 25.9047292,18.0000439 C25.9047292,20.4827922 23.8580524,22.4954541 21.3333445,22.4954541 C20.6545117,22.4929079 19.9850539,22.3391684 19.3752383,22.0459131 L25.4475907,16.0744806 Z M17.2190982,19.9255194 C16.9208868,19.3258387 16.764549,18.667507 16.7619598,17.9999561 C16.7619598,15.5172078 18.8086366,13.5045459 21.3333445,13.5045459 C22.0121773,13.5070921 22.6816351,13.6608316 23.2914507,13.9540869 L17.2190982,19.9255194 Z M21.3333445,28.4892758 C18.9575637,28.4420389 16.6218718,27.8791468 14.493053,26.840988 L17.1383847,24.2396206 C20.6383512,26.5246411 25.3593773,25.5869266 27.6830157,22.1451282 C29.3756781,19.6379712 29.3756781,16.377394 27.6830157,13.870237 L30.9439666,10.6634818 C34.0481333,12.6966013 36.8306066,15.1687257 39.2013874,17.9999561 C36.9582839,20.6718277 29.6837108,28.4892758 21.3333445,28.4892758 Z" id="Shape"></path>
                        </g>
                    </g>
                </g>
            </g>
        </g>
    </g>
</svg>