<?xml version="1.0" encoding="UTF-8"?>
<svg width="39px" height="44px" viewBox="0 0 39 44" version="1.1" xmlns="http://www.w3.org/2000/svg" xmlns:xlink="http://www.w3.org/1999/xlink">
    <title>297DA138-ABF2-4AFB-97C8-90B2FD0871B6</title>
    <g id="🖥-Pages" stroke="none" stroke-width="1" fill="none" fill-rule="evenodd">
        <g id="AC(HP)-steps(desktop)" transform="translate(-1185.000000, -892.000000)" fill="#FFFFFF" fill-rule="nonzero">
            <g id="Benefits" transform="translate(0.000000, 790.000000)">
                <g id="benefit-1-copy-3" transform="translate(1097.000000, 80.000000)">
                    <g id="icon" transform="translate(67.500000, 0.000000)">
                        <g id="filter-icon" transform="translate(21.333333, 22.666667)">
                            <path d="M35.8673174,0 L1.46593101,0 C0.656262774,0 0,0.643832076 0,1.43816386 L0,7.52656863 C0,7.88465127 0.136332093,8.22981726 0.382154572,8.49498341 L13.4380973,22.5615393 L13.4380973,41.2284195 C13.4380973,41.7409185 13.7161128,42.2150009 14.1681748,42.4725004 C14.3953949,42.6019168 14.6499664,42.6666667 14.9041132,42.6666667 C15.1547774,42.6666667 15.4059513,42.6034168 15.6312177,42.4768337 L23.1564945,38.2580919 C23.6133981,38.0020924 23.895321,37.5255934 23.895321,37.009761 L23.895321,22.5615393 L36.9511788,8.49498341 C37.197426,8.22990059 37.3333333,7.8847346 37.3333333,7.52656863 L37.3333333,1.43816386 C37.3333333,0.643832076 36.6769856,0 35.8673174,0 Z M34.4013014,6.96998639 L21.3454437,21.0360422 C21.0991965,21.3007084 20.9632891,21.6462911 20.9632891,22.004457 L20.9632891,36.1750127 L16.3699593,38.750341 L16.3699593,22.004457 C16.3699593,21.6463744 16.2336272,21.3007084 15.9878047,21.0360422 L2.93194696,6.96998639 L2.93194696,2.87641105 L34.4013014,2.87641105 L34.4013014,6.96998639 Z" id="Shape"></path>
                        </g>
                    </g>
                </g>
            </g>
        </g>
    </g>
</svg>