<svg height="30" viewBox="0 0 238 30" width="238" xmlns="http://www.w3.org/2000/svg"><g fill="none"><g fill="#46402d" transform="translate(0 .11257)"><path d="m20.795841 3.65853659c-.0568516-.50656661-.5116645-.90056286-.9096258-.90056286h-4.4344254c-.4548129 0-.9664774.33771107-1.1938838.7879925l-14.15605049 25.55347087c-.22740643.4502815-.0568516.7879925.34110965.7879925h3.97961259c.45481287 0 .96647734-.337711 1.19388378-.7879925l2.16036111-3.9962476c.22740644-.4502814.79592252-.7879925 1.19388378-.7879925h8.86885088c.4548129 0 .8527741.3939962.9096258.9005628l.568516 3.771107c.0568517.5065666.5116645.9005628.9096258.9005628h4.1501674c.4548129 0 .7390709-.3939962.6253677-.9005628zm-3.5247998 16.54784241h-6.1399737c-.4548128 0-.568516-.3377111-.3411096-.7879925l3.3542449-6.1350844c.8527741-1.575985 1.8192514-3.7148218 1.8192514-3.7148218.2274065-.45028143.3979613-.7879925.3979613-.7879925.0568516 1.4634146.2274064 2.9268293.4548129 4.3339587l1.0801805 6.2476548c.1137032.4502814-.1705548.8442777-.6253677.8442777z"/><path d="m49.2216451 9.34333959h-3.6385029c-.4548129 0-.8527741.39399624-.9664773.90056281l-.7959226 4.1651032c-.9096257 4.6716698-4.6618318 10.9193246-7.4475606 10.9193246-1.307587 0-1.2507354-2.532833-1.2507354-2.532833 0-.5065666.1137032-1.2945591.2274064-1.8011257l2.1035095-10.7504691c.1137032-.50656657-.1705548-.90056281-.6253677-.90056281h-3.6385029c-.4548129 0-.8527741.39399624-.9664774.90056281l-2.5583223 12.8893059c-.7390709 3.8836773.4548128 6.641651 4.4344254 6.641651s8.1866316-5.9662289 8.1866316-5.9662289c.2842581-.3939963.5116645-.6754221.5685161-.6754221-1.1370322 3.1519699-1.6486966 5.2908067-1.6486966 5.2908067-.1137033.5065666.1705548.9005629.568516.9005629h4.3207223c.3979612-2.4202627 1.2507354-6.8105066 1.8192515-9.5121952l1.9329546-9.5684803c.1137033-.45028139-.1705548-.90056281-.6253677-.90056281z"/><path d="m74.5206109 0h-3.6953546c-.4548128 0-.8527741.39399625-.9664773.90056285l-1.5918451 8.2739212c-.8527741-.11257035-1.4781418-.16885553-2.2172127-.16885553-9.0962573 0-13.3032763 6.97936208-13.3032763 14.57786118 0 4.2776735 1.7055482 6.2476548 4.8892383 6.2476548 4.1501674 0 8.1866316-6.0787993 8.1866316-6.0787993.284258-.3939962.5116645-.7317073.5685161-.7317073-.9664774 2.7579737-1.7055483 5.4596623-1.7055483 5.4596623-.1137032.5065666.1137032.9005628.5685161.9005628h4.3207222c.3411097-1.8574108.9096258-5.0093808 1.307587-7.2045028l4.207019-21.27579735c.1137033-.5065666-.1705548-.90056285-.568516-.90056285zm-7.3338575 14.5778612c-.8527741 4.2213883-4.5481287 10.750469-7.5044123 10.750469-1.023329 0-1.5918451-.7879925-1.5918451-2.7579737 0-4.1651032 2.2172128-9.5684803 6.9927479-9.5684803.9096257 0 1.6486966.1125703 2.3309159.2814259z"/><path d="m84.3559391 9.34333959h-3.6385029c-.4548129 0-.8527741.39399624-.9664774.90056281l-3.6385029 18.2363978c-.1137032.5065666.1705548.9005628.6253677.9005628h3.6385029c.4548129 0 .8527742-.3939962.9664774-.9005628l3.5816513-18.1801126c.1137032-.50656659-.1705548-.95684801-.5685161-.95684801z"/><path d="m83.8442746.56285178c-1.8192514 0-3.5247997 1.40712946-3.5247997 3.26454034-.0568516 1.57598499 1.2507354 2.98311445 3.0699869 2.98311445 1.8192514 0 3.5247997-1.40712946 3.5247997-3.32082552.0568516-1.57598499-1.2507354-2.92682927-3.0699869-2.92682927z"/><path d="m100.444944 8.94934334c-6.6516379 0-12.450502 5.29080676-12.450502 13.62101316 0 4.5028142 2.2740644 7.1482176 8.0729284 7.1482176 6.4810836 0 12.5073536-5.2908067 12.5073536-13.5084428 0-4.1651032-2.217212-7.26078796-8.12978-7.26078796zm-3.6953543 16.37898686c-2.4446191 0-3.3542449-1.3508443-3.3542449-3.5459662 0-3.9962477 2.330916-8.4427768 6.1968254-8.4427768 2.4446188 0 3.4110968 1.238274 3.4110968 3.5459663.056851 4.4465291-2.558323 8.4427767-6.2536773 8.4427767z"/><path d="m138.194412 2.19512195h-3.638503c-.454813 0-.852774.39399625-.966477.90056285l-1.932955 10.3001876c-.511664 2.532833-1.023329 5.5722327-1.307587 8.0487805-.568516-2.0262664-1.819251-5.5722326-1.819251-5.5722326-.170555-.4502815-.454813-1.238274-.625368-1.6885554l-4.60498-11.20075045c-.170555-.45028143-.682219-.84427768-1.137032-.84427768h-4.718684c-.454813 0-.852774.39399625-.966477.90056285l-5.002942 25.44090058c-.113703.5065666.170555.9005628.625368.9005628h3.581651c.454813 0 .852774-.3939962.966478-.9005628l2.103509-10.8067542c.568516-2.7016886.966478-5.2345216 1.307587-7.76735463.454813 1.80112573 1.591845 5.06566603 1.591845 5.06566603.170555.4502814.454813 1.2382739.625368 1.6885554l4.775535 11.8761726c.170555.4502814.682219.8442776 1.137032.8442776h4.661832c.454813 0 .852774-.3939962.966477-.9005628l5.002942-25.3846154c.056852-.5065666-.227407-.90056285-.625368-.90056285z"/><path d="m152.805276 8.94934334c-6.651639 0-12.450503 5.29080676-12.450503 13.62101316 0 4.5028142 2.274065 7.1482176 8.072929 7.1482176 6.481083 0 12.507354-5.2908067 12.507354-13.5084428 0-4.1651032-2.217213-7.26078796-8.12978-7.26078796zm-3.638503 16.37898686c-2.44462 0-3.354245-1.3508443-3.354245-3.5459662 0-3.9962477 2.330916-8.4427768 6.196825-8.4427768 2.444619 0 3.411097 1.238274 3.411097 3.5459663 0 4.4465291-2.558323 8.4427767-6.253677 8.4427767z"/><path d="m184.187363 9.39962477-4.207019.05628517c-.397961-.11257035-.966477.11257036-1.137032.56285176l-6.424232 11.988743c-.227406.4502814-.454812.7879925-.511664.7879925-.056852-1.5196998-.397961-3.8273921-.397961-3.8273921-.056852-.5065666-.170555-1.2945591-.284258-1.8011257l-1.080181-6.8667918c-.056851-.50656659-.511664-.90056283-.909626-.90056283h-3.979612c-.454813 0-.739071.39399624-.625368.90056283l3.240542 18.1801126c.113703.5065666.511664.9005628.966477.9005628h3.922761c.454813 0 .966477-.337711 1.193884-.7879925l10.574399-18.2363977c.227406-.39399625.113703-.84427768-.34111-.95684803z"/><path d="m197.433788 9.00562852c-9.096257 0-13.303276 6.97936208-13.303276 14.57786118 0 4.2776735 1.705548 6.2476548 4.889238 6.2476548 4.150168 0 8.186632-6.0787993 8.186632-6.0787993.284258-.3939962.511664-.7317073.568516-.7317073-.966478 2.7579737-1.705548 5.4596623-1.705548 5.4596623-.113704.4502814.113703.8442777.568516.8442777h4.377573c.852775-5.2908068 1.932955-10.4690432 3.809058-19.7560976-2.387767-.39399625-4.889238-.56285178-7.390709-.56285178zm1.193884 5.57223268c-.852774 4.2213883-4.548129 10.750469-7.504412 10.750469-1.023329 0-1.591845-.7879925-1.591845-2.7579737 0-4.1651032 2.217212-9.5684803 6.992747-9.5684803.909626 0 1.648697.1125703 2.330916.2814259z"/></g><path d="m232.170121 3.15196998c2.615174 2.87054409 3.865909 6.81050657 3.069987 11.03189492-1.080181 5.5159475-5.2872 10.2439025-10.801806 12.0450282-8.12978 2.7016885-14.83827-.4502815-16.941779-3.0956848v6.7542213h22.683792c3.752206-2.7579737 6.594786-6.6979362 7.504412-11.5384615 1.193884-6.1350844-1.080181-11.81988742-5.514606-15.19699812m-16.089005 16.04127582c1.478142.7879925 3.18369 1.2382739 5.059793 1.2945591 1.137032.0562852 9.096257-.619137 12.39365-8.3302064-1.534993 1.6322702-3.865909 2.6454034-6.310528 2.5891182-.966477 0-1.932955-.2251407-2.728877-.5628518-2.501471-1.0694184-4.036464-3.4333959-3.695355-6.13508441.284258-2.13883678 1.705548-4.05253284 3.695355-5.1782364 2.785729-1.63227017 5.002941-1.12570356 5.230348-1.12570356-1.478142-.95684803-3.752206-1.74484053-5.855716-1.74484053-2.84258 0-5.628309.84427767-7.78867 2.36397749-2.672026 1.8011257-4.548129 4.55909943-4.94609 7.59849906-.568516 3.93996245 1.478142 7.42964355 4.94609 9.23076925" fill="#95c121"/></g></svg>