<?xml version="1.0" encoding="UTF-8"?>
<svg width="44px" height="43px" viewBox="0 0 44 43" version="1.1" xmlns="http://www.w3.org/2000/svg" xmlns:xlink="http://www.w3.org/1999/xlink">
    <title>76E7C5A2-5BC1-4EDD-B7B6-9EF3A5539380</title>
    <g id="🖥-Pages" stroke="none" stroke-width="1" fill="none" fill-rule="evenodd">
        <g id="AC(HP)-steps(desktop)" transform="translate(-505.000000, -890.000000)" fill="#FFFFFF" fill-rule="nonzero">
            <g id="Benefits" transform="translate(0.000000, 790.000000)">
                <g id="benefit-1-copy" transform="translate(425.500000, 80.000000)">
                    <g id="icon" transform="translate(61.500000, 0.000000)">
                        <g id="speech-icon" transform="translate(18.666667, 20.000000)">
                            <path d="M10.6666667,16 C9.19334205,16 8,17.193342 8,18.6666667 C8,20.1399913 9.19334205,21.3333333 10.6666667,21.3333333 C12.1386667,21.3333333 13.3333333,20.1399913 13.3333333,18.6666667 C13.3333333,17.193342 12.1399913,16 10.6666667,16 Z M21.3333333,16 C19.8600087,16 18.6666667,17.193342 18.6666667,18.6666667 C18.6666667,20.1399913 19.8600087,21.3333333 21.3333333,21.3333333 C22.8053333,21.3333333 24,20.1399913 24,18.6666667 C24,17.193342 22.806658,16 21.3333333,16 Z M32,16 C30.5266754,16 29.3333333,17.193342 29.3333333,18.6666667 C29.3333333,20.1399913 30.5266754,21.3333333 32,21.3333333 C33.4733246,21.3333333 34.6666667,20.1399913 34.6666667,18.6666667 C34.6666667,17.193342 33.4733246,16 32,16 Z M21.3333333,0 C9.55203486,0 0,8.35729847 0,18.6666667 C0,24.5587102 3.12665795,29.8039913 8,33.225342 L8,42.6666667 L17.3453246,36.9959739 C18.6387102,37.2093769 19.9693246,37.3333333 21.3333333,37.3333333 C33.1160261,37.3333333 42.6666667,28.9760349 42.6666667,18.6666667 C42.6666667,8.35729847 33.1160261,0 21.3333333,0 Z M21.3333333,34.6666667 C19.776,34.6666667 18.272,34.4853333 16.8266318,34.1773246 L10.5492636,37.9506057 L10.6332723,31.766658 C5.82135076,28.8720174 2.66666667,24.0880523 2.66666667,18.6666667 C2.66666667,9.83069281 11.0239651,2.66666667 21.3333333,2.66666667 C31.6427015,2.66666667 40,9.83069281 40,18.6666667 C40,27.5026405 31.6427015,34.6666667 21.3333333,34.6666667 Z" id="Shape"></path>
                        </g>
                    </g>
                </g>
            </g>
        </g>
    </g>
</svg>